<?xml version="1.0" encoding="iso-8859-1"?>
<!-- Generator: Adobe Illustrator 19.0.0, SVG Export Plug-In . SVG Version: 6.00 Build 0)  -->
<svg version="1.1" id="Layer_1" xmlns="http://www.w3.org/2000/svg" xmlns:xlink="http://www.w3.org/1999/xlink" x="0px" y="0px"
	 viewBox="0 0 512 512" style="enable-background:new 0 0 512 512;" xml:space="preserve">
<g>
	<g>
		<path d="M256,0C114.615,0,0,114.615,0,256s114.615,256,256,256s256-114.615,256-256S397.385,0,256,0z M256,494.933
			C124.041,494.933,17.067,387.959,17.067,256S124.041,17.067,256,17.067S494.933,124.041,494.933,256S387.959,494.933,256,494.933z
			"/>
	</g>
</g>
<g>
	<g>
		<path d="M352.144,290.868c-26.035-4.77-52.105,8.162-64.059,31.777l-99.243-37.973c9.806-17.887,9.806-39.542,0-57.429
			l99.243-38.144c10.159,20.081,30.743,32.748,53.248,32.768c32.99,0.018,59.748-26.711,59.766-59.701
			c0.018-32.99-26.711-59.748-59.701-59.766s-59.748,26.711-59.766,59.701c-0.002,3.646,0.33,7.284,0.991,10.87l-104.533,40.363
			c-23.564-23.088-61.383-22.702-84.471,0.862s-22.702,61.383,0.862,84.471c23.225,22.756,60.384,22.756,83.609,0l104.533,40.192
			c-5.945,32.45,15.541,63.575,47.991,69.52c32.45,5.945,63.575-15.541,69.52-47.991
			C406.08,327.939,384.594,296.813,352.144,290.868z M341.333,119.467c23.564,0,42.667,19.103,42.667,42.667
			S364.898,204.8,341.333,204.8c-23.564,0-42.667-19.102-42.667-42.667S317.769,119.467,341.333,119.467z M136.533,298.667
			c-23.564,0-42.667-19.103-42.667-42.667s19.102-42.667,42.667-42.667S179.2,232.436,179.2,256S160.097,298.667,136.533,298.667z
			 M341.333,392.533c-23.564,0-42.667-19.102-42.667-42.667s19.102-42.667,42.667-42.667c23.564,0,42.667,19.103,42.667,42.667
			S364.898,392.533,341.333,392.533z"/>
	</g>
</g>
<g>
</g>
<g>
</g>
<g>
</g>
<g>
</g>
<g>
</g>
<g>
</g>
<g>
</g>
<g>
</g>
<g>
</g>
<g>
</g>
<g>
</g>
<g>
</g>
<g>
</g>
<g>
</g>
<g>
</g>
</svg>
